<svg xmlns="http://www.w3.org/2000/svg" width="262.457" height="79.604"><defs><style>.a{fill:#1d1d1b}</style></defs><path class="a" d="M57.398 65.711a.978.978 0 10-1.009-.979.987.987 0 001.009.979zM61.355 66.792h-.545v3.707c-.061 1.1-.586 1.529-1.534 1.529h-6.44c-1.817 0-2.28-2.036-2.28-3.138a3.648 3.648 0 011.433-3h-.686c-1.15 0-2.3.878-2.3 3.362 0 2.118 1.292 4.5 3.816 4.5a.541.541 0 00.162-.021h6.743c2.219-.143 2.826-2 2.826-3.932v-1.641c-.004-.98-.286-1.366-1.195-1.366zM55.078 65.711a.978.978 0 000-1.956.978.978 0 100 1.956zM74.485 63.695a.977.977 0 10-1.009-.977.987.987 0 001.009.977zM73.112 65.082c-2.341 0-3.835 1.69-3.835 4.459a3.7 3.7 0 00.807 2.486h-2.622c-.99 0-1.534-.469-1.534-1.611v-7.6c0-.979-.283-1.364-1.192-1.364h-.545v9.042c0 1.894.99 3.158 2.826 3.239h9.808v-4.5c.002-2.483-1.512-4.151-3.713-4.151zm2.141 6.946c-2.463 0-4.362-.246-4.362-2.772 0-1.589.808-2.607 2.04-2.607 2.483 0 2.322 2.403 2.322 5.378zM71.963 63.695a.977.977 0 000-1.954.977.977 0 100 1.954zM82.071 65.082c-2.342 0-3.837 1.69-3.837 4.459 0 3.524 3.311 4.135 5.775 4.2-.486 1.2-1.717 2.078-3.715 2.078a4.637 4.637 0 01-1.111-.123v.675c0 .712.747.935 1.656.935a4.834 4.834 0 004.825-3.4 13.558 13.558 0 00.363-3.219c-.005-2.551-.705-5.605-3.956-5.605zm2.139 6.946c-2.463 0-4.36-.246-4.36-2.772 0-1.589.807-2.607 2.039-2.607 2.483 0 2.321 2.403 2.321 5.379zM95.935 61.456h-.545v9.042a1.422 1.422 0 01-1.534 1.529h-2.6V62.29a.887.887 0 00-.888-.834h-.808v10.571h-2.12v.61c0 .652.364 1.1 1.211 1.1h5.653c2.221-.143 2.826-2 2.826-3.932v-6.984c-.005-.98-.287-1.365-1.195-1.365zM89.091 60.677h2.442a.406.406 0 00.424-.384v-.327h-1.715a.865.865 0 01-.242-.754c0-.692.343-.793.545-.793.121 0 .666.04.989.856 0-.205.2-.407.2-.653a1.105 1.105 0 00-1.131-.815 1.336 1.336 0 00-1.33 1.47 1.256 1.256 0 00.081.569l.06.123h-.731v.327a.4.4 0 00.408.381zM100.147 61.456h-.807v11.059c0 .856.444 1.223 1.089 1.223h.606V62.29a.886.886 0 00-.888-.834zM129.749 59.642l-7.55 5.662a1.173 1.173 0 00-.565.939 1.1 1.1 0 00.262.692l.323.428.02.041a3.522 3.522 0 011.09-.162c3.291 0 3.755 2.972 3.856 4.787h-6.553a1.512 1.512 0 01-1.232-.449 21.77 21.77 0 00.082-2.241v-6.5c0-.977-.283-1.364-1.192-1.364h-.545v8.515c0 .345.223 5.987-3.694 5.987-2.907 0-3.9-2.262-3.9-4.176a3.216 3.216 0 011.514-2.81v-.082l-.707-.06c-1.635 0-2.383 1.282-2.383 3.095 0 2.873 1.635 5.785 5.613 5.785 3.008 0 4.3-2.118 4.864-4.216a3.278 3.278 0 001.131.224h8.813l.021-1.71c.02-2.528-.807-5.765-4.321-6.439l5.41-4.073a.829.829 0 00.3-.65.952.952 0 00-.181-.57zM141.45 77.649a.978.978 0 100 1.956.978.978 0 000-1.956zM143.771 77.649a.978.978 0 10.969.977.983.983 0 00-.969-.977zM160.091 65.082c-2.342 0-3.836 1.69-3.836 4.459a3.7 3.7 0 00.808 2.486h-4.39v-6.946h-1.736c-9.447 0-3.391 9.938-8.115 9.938-3.553-.04-3.876-1.71-3.876-3.685a3.652 3.652 0 011.616-3v-.06l-.91-.082c-1.614 0-2.3 1.529-2.3 3.3 0 3 1.433 5.175 5.35 5.175 7.348 0 .544-9.779 8.236-9.779v6.845h12.868v-4.5c0-2.483-1.514-4.151-3.715-4.151zm2.14 6.946c-2.463 0-4.361-.246-4.361-2.772 0-1.589.808-2.607 2.04-2.607 2.482 0 2.319 2.403 2.319 5.379zM160.112 63.695a.988.988 0 10-.969-.977.97.97 0 00.969.977zM177.021 65.711a.978.978 0 000-1.956.978.978 0 100 1.956zM179.342 65.711a.978.978 0 10-1.009-.979.987.987 0 001.009.979zM183.299 66.792h-.544v3.707c-.061 1.1-.586 1.529-1.535 1.529h-6.44c-1.817 0-2.28-2.036-2.28-3.138a3.648 3.648 0 011.433-3h-.687c-1.15 0-2.3.878-2.3 3.362 0 2.118 1.292 4.5 3.815 4.5a.536.536 0 00.162-.021h6.743c2.22-.143 2.826-2 2.826-3.932v-1.641c-.001-.98-.284-1.366-1.193-1.366zM188.396 62.29a.886.886 0 00-.889-.834h-.807v11.059c0 .856.444 1.223 1.09 1.223h.606zM191.324 66.772h-.546v5.172c0 2.669.344 3.994-1.937 3.994a3.851 3.851 0 01-.485-.042v.47c0 .59.566.935 1.394.935a2.692 2.692 0 002.765-2.587v-6.578c0-.978-.283-1.364-1.191-1.364zM203.387 74.977a.978.978 0 10.969.979.983.983 0 00-.969-.979zM201.068 74.977a.978.978 0 100 1.956.978.978 0 000-1.956zM209.301 65.082c-2.443 0-3.331 1.161-3.331 2.322v.713a3.325 3.325 0 012.97-1.284c2.684 0 3.553 3.38 3.654 5.195h-7.709a1.336 1.336 0 01-1.534-1.426v-2.445c0-.979-.283-1.364-1.191-1.364h-.545V70.5c-.06 1.1-.586 1.529-1.535 1.529h-2.64c-.99 0-1.535-.469-1.535-1.611v-7.6c0-.979-.282-1.364-1.192-1.364h-.544v9.042c0 1.894.989 3.158 2.826 3.239h3.529a2.909 2.909 0 001.958-.774 2.872 2.872 0 001.959.774h6.8a3.568 3.568 0 013.069 1.3 19.2 19.2 0 00.1-1.956c-.002-3.517-1.01-7.997-5.109-7.997zM209.462 63.635a1 1 0 00.989-1.018.974.974 0 00-.989-.959.94.94 0 00-.949.959.967.967 0 00.949 1.018z"/><g><path class="a" d="M164.561 22.714h-3.162v10.969c0 2.259-.9 3.485-3.1 3.679h-10.842c-.516-14.519-11.55-17.617-12.389-17.682 2.194-1.612 4.387-3.291 6.646-4.9 2.71-2.065 5.613-4.13 8.324-6.26a3.873 3.873 0 001.419-3.032 4.6 4.6 0 00-.774-2.646l-2.194-2.84c-7.55 5.615-16.2 12.066-23.747 17.745a5.537 5.537 0 00-2.065 3.806 5.9 5.9 0 001.807 3.807 14.963 14.963 0 00.967 1.162 16.567 16.567 0 013.291-.322 9.959 9.959 0 015.55 1.677v-.065a12.2 12.2 0 015.034 9.552h-101.9a5.889 5.889 0 01-2.84-.388 15.925 15.925 0 00.967-5.935c0-7.034-4.646-13.487-12.647-13.487-8.583 0-13.1 6.453-13.1 14.326 0 .708.064 1.871.129 2.71.065 1.1.065 2.192.065 3.291 0 3.42-.71 6.645-4.775 6.645H0v2.581c0 3.356 1.872 5.164 5.808 5.228l.71.065c6.517 0 8.775-4.583 10.259-7.549a5.669 5.669 0 01.322-.581 13.272 13.272 0 005.292 1.032 14.417 14.417 0 008.194-2.646 10.043 10.043 0 007.356 2.646h121c7.55-.259 11.163-5.034 11.163-11.228v-5.618c.006-3.806-1.865-5.742-5.543-5.742zM22.908 38.394c-3.678 0-5.291-2.775-5.291-7.355 0-3.808 1.613-6.519 4.775-6.519 3.613 0 5.291 2.711 5.291 7.358-.004 3.741-1.549 6.516-4.775 6.516zM161.657 48.524a4.389 4.389 0 000 8.777 4.389 4.389 0 100-8.777zM221.286 48.524a4.313 4.313 0 00-4.388 4.389 4.26 4.26 0 004.388 4.324 4.337 4.337 0 004.388-4.324 4.393 4.393 0 00-4.388-4.389zM245.293 17.615c-7.228 0-10.777 3.614-10.777 8.13v4.389c3.549-3.356 6.195-4.516 9.357-4.516 6.13 0 8.9 7.614 10 11.744H232.06c-4.581 0-6.195-1.614-6.324-5.292v-3.614c0-3.806-1.936-5.678-5.678-5.678h-3.1v10.97c0 2.259-.84 3.485-3.1 3.614h-26.4a2.954 2.954 0 01-2.967-2.517v-23.81c0-2.646-2.582-4.454-4.776-4.454h-4.13V34.07c0 6.26 3.743 10.969 11.293 11.228h23.491v.065c5.42 0 9.163-.581 11.744-2.646 2.258 1.871 5.1 2.646 8.839 2.646h1.108v-.061h19.49c4 .323 8 2 9.873 5.808a36.587 36.587 0 001.032-8.518c.005-10.909-4.579-24.977-17.162-24.977z"/></g></svg>