<svg xmlns="http://www.w3.org/2000/svg" width="135.028" height="169.595"><path d="M25.898 42.371a3.47 3.47 0 014.726 5.083c-.193.179-18.293 16.441-25.291 27.766a15.534 15.534 0 00-1.535 3.145c-1.956 5.533 2.468 12.158 5.055 17.346a.1.1 0 00.158.021c10.529-11.64 28.611-29.6 35.674-36.568a3.646 3.646 0 014.713-.479 3.473 3.473 0 01.342 5.241c-12.767 12.588-26.242 26.317-34.45 35.2a5.885 5.885 0 00-.704 7.026q1.531 2.552 3.151 5.07 1.813 2.817 3.6 5.481a2.76 2.76 0 003.93.675c18.057-13.243 40.359-36.158 40.608-36.416a3.471 3.471 0 014.982 4.833c-1.026 1.057-22.582 23.206-40.943 36.782a3.774 3.774 0 00-.78 5.266q2.451 3.354 4.815 6.419c1.353 1.754 2.2 3.7 4.233 4.136 1.658.354 3.115-.829 5.225-1.987 15.651-8.6 45.185-27.263 48.775-47.323 1.378-7.7-1.28-14.774-8.126-21.634-3.743-3.752-7.162-10.536-6.367-17.234.473-3.985 2.646-9.723 10.311-14.425l1.66-1.018a.1.1 0 01.1 0l1.71.931c.442.239 36.673 20.385 37.831 52.523a.102.102 0 00.2.037c9.04-22.439 8.9-46.358-15.032-70.667C102.601 5.546 85.244.001 67.505.001s-35.1 5.548-46.965 17.6C3.386 35.028-1.524 52.804.386 69.452a.415.415 0 00.761.166 118.789 118.789 0 0124.751-27.247z" fill="#ed7601"/><path d="M119.728 107.299c13.719-31.537-21.149-59.062-29.739-64.4a.1.1 0 00-.118.008c-3.151 2.357-4.927 5.086-5.289 8.139-.6 5.03 2.609 9.731 4.387 11.514 8.45 8.466 11.829 17.809 10.044 27.766-3.916 21.852-32.373 40.979-49.488 50.669-2.673 1.515-4.564 1.977-5 4.168-.4 2.051.607 2.764 1.88 4.2a178.427 178.427 0 0020.288 19.951 1.275 1.275 0 001.613 0c4.315-3.476 25.361-21.389 48.962-58.081q1.256-1.952 2.455-3.928z" fill="#035b61"/></svg>